[IMG]http://tamilmalayalammovie.com/malayalammovie/wp-content/uploads/2011/03/The-Thriller.jpg[/IMG]

INFO:
[code]
General

Format                           : AVI
Format/Info                      : Audio Video Interleave
File size                        : 1 022 MiB
Duration                         : 2h 22mn
Overall bit rate                 : 1 002 Kbps
Writing application              : VirtualDubMod 1.5.10.2 (build 2540/release)
Writing library                  : VirtualDubMod build 2540/release

Video
ID                               : 0
Format                           : MPEG-4 Visual
Format profile                   : Advanced Simple@L5
Format settings, BVOP            : 2
Format settings, QPel            : Yes
Format settings, GMC             : No warppoints
Format settings, Matrix          : Default (H.263)
Codec ID                         : XVID
Codec ID/Hint                    : XviD
Duration                         : 2h 22mn
Bit rate                         : 542 Kbps
Width                            : 640 pixels
Height                           : 272 pixels
Display aspect ratio             : 2.35:1
Frame rate                       : 29.970 fps
Color space                      : YUV
Chroma subsampling               : 4:2:0
Bit depth                        : 8 bits
Scan type                        : Progressive
Compression mode                 : Lossy
Bits/(Pixel*Frame)               : 0.104
Stream size                      : 553 MiB (54%)
Writing library                  : XviD 1.2.1 (UTC 2008-12-04)

Audio
ID                               : 1
Format                           : AC-3
Format/Info                      : Audio Coding 3
Mode extension                   : CM (complete main)
Codec ID                         : 2000
Duration                         : 2h 22mn
Bit rate mode                    : Constant
Bit rate                         : 448 Kbps
Channel(s)                       : 6 channels
Channel positions                : Front: L C R, Side: L R, LFE
Sampling rate                    : 48.0 KHz
Bit depth                        : 16 bits
Compression mode                 : Lossy
Stream size                      : 457 MiB (45%)

[/code]

Screens:

[img]http://pic.phyrefile.com/s/sh/shahaz/2011/04/10/1.jpg[/img]
[img]http://pic.phyrefile.com/s/sh/shahaz/2011/04/10/2.jpg[/img]
[img]http://pic.phyrefile.com/s/sh/shahaz/2011/04/10/3.jpg[/img]
[img]http://pic.phyrefile.com/s/sh/shahaz/2011/04/10/4.jpg[/img]
[img]http://pic.phyrefile.com/s/sh/shahaz/2011/04/10/5.jpg[/img]
[img]http://pic.phyrefile.com/s/sh/shahaz/2011/04/10/6.jpg[/img]
[img]http://pic.phyrefile.com/s/sh/shahaz/2011/04/10/7.jpg[/img]
[img]http://pic.phyrefile.com/s/sh/shahaz/2011/04/10/8.jpg[/img]
[img]http://pic.phyrefile.com/s/sh/shahaz/2011/04/10/9.jpg[/img]
[img]http://pic.phyrefile.com/s/sh/shahaz/2011/04/10/10.jpg[/img]


